<?xml version="1.0" encoding="UTF-8"?>
<svg width="600" height="800" viewBox="0 0 600 800" xmlns="http://www.w3.org/2000/svg">
  <!-- Fond jardin moderne -->
  <defs>
    <linearGradient id="modernGrad" x1="0%" y1="0%" x2="0%" y2="100%">
      <stop offset="0%" style="stop-color:#F0F8FF;stop-opacity:1" />
      <stop offset="100%" style="stop-color:#E8F5E9;stop-opacity:1" />
    </linearGradient>
  </defs>

  <rect width="600" height="800" fill="url(#modernGrad)"/>

  <!-- Bassin moderne -->
  <rect x="150" y="300" width="300" height="200" rx="10" fill="#4A90E2" opacity="0.8"/>
  <rect x="170" y="320" width="260" height="160" rx="5" fill="#5BA0F2" opacity="0.6"/>

  <!-- Fontaine centrale -->
  <circle cx="300" cy="400" r="30" fill="#87CEEB"/>
  <line x1="300" y1="400" x2="300" y2="350" stroke="#4A90E2" stroke-width="4"/>
  <circle cx="300" cy="350" r="5" fill="#4A90E2"/>

  <!-- Palmiers -->
  <g transform="translate(100, 500)">
    <rect x="0" y="0" width="15" height="80" fill="#8B4513"/>
    <path d="M 7 0 Q -20 -20, -30 -10" stroke="#228B22" stroke-width="5" fill="none"/>
    <path d="M 7 0 Q 20 -20, 30 -10" stroke="#228B22" stroke-width="5" fill="none"/>
    <path d="M 7 0 Q 0 -25, 0 -15" stroke="#228B22" stroke-width="5" fill="none"/>
  </g>

  <g transform="translate(485, 500)">
    <rect x="0" y="0" width="15" height="80" fill="#8B4513"/>
    <path d="M 7 0 Q -20 -20, -30 -10" stroke="#228B22" stroke-width="5" fill="none"/>
    <path d="M 7 0 Q 20 -20, 30 -10" stroke="#228B22" stroke-width="5" fill="none"/>
    <path d="M 7 0 Q 0 -25, 0 -15" stroke="#228B22" stroke-width="5" fill="none"/>
  </g>

  <!-- Gazon synthétique -->
  <rect x="50" y="580" width="500" height="150" fill="#3CB371" opacity="0.9"/>

  <!-- Texte -->
  <text x="300" y="770" font-family="Arial, sans-serif" font-size="24" font-weight="bold" fill="white" text-anchor="middle">
    Jardin Contemporain
  </text>
</svg>