<?xml version="1.0" encoding="UTF-8"?>
<svg width="400" height="300" viewBox="0 0 400 300" xmlns="http://www.w3.org/2000/svg">
  <!-- Fond -->
  <rect width="400" height="300" fill="#F5F5F5"/>

  <!-- Piscine -->
  <ellipse cx="200" cy="150" rx="120" ry="70" fill="#00BCD4"/>
  <ellipse cx="200" cy="145" rx="115" ry="65" fill="#0097A7"/>
  <ellipse cx="200" cy="145" rx="110" ry="60" fill="#00ACC1"/>

  <!-- Margelle -->
  <ellipse cx="200" cy="150" rx="130" ry="75" fill="none" stroke="#795548" stroke-width="8"/>

  <!-- Eau (effet) -->
  <path d="M100 145 Q130 140, 160 145 T220 145" stroke="#4DD0E1" stroke-width="2" fill="none" opacity="0.6"/>
  <path d="M120 155 Q150 150, 180 155 T240 155" stroke="#4DD0E1" stroke-width="2" fill="none" opacity="0.6"/>
  <path d="M140 135 Q170 130, 200 135 T260 135" stroke="#4DD0E1" stroke-width="2" fill="none" opacity="0.6"/>

  <!-- Échelle -->
  <rect x="280" y="120" width="4" height="40" fill="#B0BEC5"/>
  <rect x="290" y="120" width="4" height="40" fill="#B0BEC5"/>
  <rect x="284" y="130" width="6" height="3" fill="#B0BEC5"/>
  <rect x="284" y="140" width="6" height="3" fill="#B0BEC5"/>
  <rect x="284" y="150" width="6" height="3" fill="#B0BEC5"/>

  <!-- Carrelage autour -->
  <rect x="60" y="210" width="30" height="30" fill="#BCAAA4" stroke="#8D6E63" stroke-width="1"/>
  <rect x="92" y="210" width="30" height="30" fill="#A1887F" stroke="#8D6E63" stroke-width="1"/>
  <rect x="278" y="210" width="30" height="30" fill="#BCAAA4" stroke="#8D6E63" stroke-width="1"/>
  <rect x="310" y="210" width="30" height="30" fill="#A1887F" stroke="#8D6E63" stroke-width="1"/>

  <!-- Projecteur -->
  <circle cx="150" cy="120" r="8" fill="#FFD600"/>
  <circle cx="250" cy="120" r="8" fill="#FFD600"/>

  <!-- Texte -->
  <text x="200" y="270" font-family="Arial, sans-serif" font-size="20" font-weight="bold" fill="#6B7280" text-anchor="middle">
    Construction Piscine
  </text>
</svg>